HIERARCHY
ROOT Hips
{
	OFFSET 0.000000 97.167313 0.000000
	CHANNELS 6 Xposition Yposition Zposition Xrotation Yrotation Zrotation
	JOINT Spine
	{
		OFFSET 0.000000 13.784798 0.064400
		CHANNELS 3 Xrotation Yrotation Zrotation
		JOINT Spine1
		{
			OFFSET 0.000000 12.037903 0.404700
			CHANNELS 3 Xrotation Yrotation Zrotation
			JOINT Spine2
			{
				OFFSET 0.000000 17.795601 0.420200
				CHANNELS 3 Xrotation Yrotation Zrotation
				JOINT Neck
				{
					OFFSET 0.000000 39.131302 11.954600
					CHANNELS 3 Xrotation Yrotation Zrotation
					JOINT Head
					{
						OFFSET 0.000000 14.456192 15.627699
						CHANNELS 3 Xrotation Yrotation Zrotation
						JOINT HeadTop_End
						{
							OFFSET 0.000000 15.703506 7.603401
							CHANNELS 3 Xrotation Yrotation Zrotation
							End Site
							{
								OFFSET 0.000000 17.447403 0.000000
							}
						}
					}
				}
				JOINT LeftShoulder
				{
					OFFSET 17.399500 24.608795 1.168800
					CHANNELS 3 Xrotation Yrotation Zrotation
					JOINT LeftArm
					{
						OFFSET 18.980635 5.765305 1.818600
						CHANNELS 3 Xrotation Yrotation Zrotation
						JOINT LeftForeArm
						{
							OFFSET 49.290169 0.000000 0.000000
							CHANNELS 3 Xrotation Yrotation Zrotation
							JOINT LeftHand
							{
								OFFSET 31.562012 0.000000 0.000000
								CHANNELS 3 Xrotation Yrotation Zrotation
								JOINT LeftHandThumb1
								{
									OFFSET 6.133995 -4.388519 7.076070
									CHANNELS 3 Xrotation Yrotation Zrotation
									JOINT LeftHandThumb2
									{
										OFFSET 6.037666 -3.485840 3.485847
										CHANNELS 3 Xrotation Yrotation Zrotation
										JOINT LeftHandThumb3
										{
											OFFSET 6.496506 -3.750763 3.750761
											CHANNELS 3 Xrotation Yrotation Zrotation
											JOINT LeftHandThumb4
											{
												OFFSET 5.616882 -3.242905 3.242910
												CHANNELS 3 Xrotation Yrotation Zrotation
												End Site
												{
													OFFSET -1.254608 7.132141 0.375429
												}
											}
										}
									}
								}
								JOINT LeftHandPinky1
								{
									OFFSET 18.920792 -0.453171 -11.426712
									CHANNELS 3 Xrotation Yrotation Zrotation
									JOINT LeftHandPinky2
									{
										OFFSET 4.919586 0.000000 0.000000
										CHANNELS 3 Xrotation Yrotation Zrotation
										JOINT LeftHandPinky3
										{
											OFFSET 5.233047 0.000000 0.000000
											CHANNELS 3 Xrotation Yrotation Zrotation
											JOINT LeftHandPinky4
											{
												OFFSET 5.571716 0.000000 0.000000
												CHANNELS 3 Xrotation Yrotation Zrotation
												End Site
												{
													OFFSET -3.459808 4.342407 -0.466164
												}
											}
										}
									}
								}
								JOINT LeftHandRing1
								{
									OFFSET 22.726120 -0.094986 -6.500475
									CHANNELS 3 Xrotation Yrotation Zrotation
									JOINT LeftHandRing2
									{
										OFFSET 6.408615 0.000000 0.000000
										CHANNELS 3 Xrotation Yrotation Zrotation
										JOINT LeftHandRing3
										{
											OFFSET 6.150223 0.000000 0.000000
											CHANNELS 3 Xrotation Yrotation Zrotation
											JOINT LeftHandRing4
											{
												OFFSET 6.145386 0.000000 0.000000
												CHANNELS 3 Xrotation Yrotation Zrotation
												End Site
												{
													OFFSET -3.671402 4.923981 -0.202372
												}
											}
										}
									}
								}
								JOINT LeftHandMiddle1
								{
									OFFSET 23.373947 0.000000 0.000001
									CHANNELS 3 Xrotation Yrotation Zrotation
									JOINT LeftHandMiddle2
									{
										OFFSET 6.996567 0.000000 0.000000
										CHANNELS 3 Xrotation Yrotation Zrotation
										JOINT LeftHandMiddle3
										{
											OFFSET 7.015945 0.000000 0.000000
											CHANNELS 3 Xrotation Yrotation Zrotation
											JOINT LeftHandMiddle4
											{
												OFFSET 7.721573 0.000000 0.000000
												CHANNELS 3 Xrotation Yrotation Zrotation
												End Site
												{
													OFFSET -4.651108 6.158463 0.251582
												}
											}
										}
									}
								}
								JOINT LeftHandIndex1
								{
									OFFSET 21.310577 -0.490082 6.209344
									CHANNELS 3 Xrotation Yrotation Zrotation
									JOINT LeftHandIndex2
									{
										OFFSET 7.536453 0.000000 0.000000
										CHANNELS 3 Xrotation Yrotation Zrotation
										JOINT LeftHandIndex3
										{
											OFFSET 7.512344 0.000000 0.000000
											CHANNELS 3 Xrotation Yrotation Zrotation
											JOINT LeftHandIndex4
											{
												OFFSET 10.212402 0.000000 0.000001
												CHANNELS 3 Xrotation Yrotation Zrotation
												End Site
												{
													OFFSET -5.180801 8.690506 1.388433
												}
											}
										}
									}
								}
							}
						}
					}
				}
				JOINT RightShoulder
				{
					OFFSET -17.399500 24.608795 1.168800
					CHANNELS 3 Xrotation Yrotation Zrotation
					JOINT RightArm
					{
						OFFSET -18.980635 5.765305 1.818600
						CHANNELS 3 Xrotation Yrotation Zrotation
						JOINT RightForeArm
						{
							OFFSET -49.290169 0.000000 0.000000
							CHANNELS 3 Xrotation Yrotation Zrotation
							JOINT RightHand
							{
								OFFSET -31.562012 0.000000 0.000000
								CHANNELS 3 Xrotation Yrotation Zrotation
								JOINT RightHandThumb1
								{
									OFFSET -6.133995 -4.388519 7.076070
									CHANNELS 3 Xrotation Yrotation Zrotation
									JOINT RightHandThumb2
									{
										OFFSET -6.037666 -3.485840 3.485847
										CHANNELS 3 Xrotation Yrotation Zrotation
										JOINT RightHandThumb3
										{
											OFFSET -6.496506 -3.750763 3.750761
											CHANNELS 3 Xrotation Yrotation Zrotation
											JOINT RightHandThumb4
											{
												OFFSET -5.616882 -3.242905 3.242910
												CHANNELS 3 Xrotation Yrotation Zrotation
												End Site
												{
													OFFSET 1.254608 7.132141 0.375429
												}
											}
										}
									}
								}
								JOINT RightHandIndex1
								{
									OFFSET -21.310577 -0.490082 6.209344
									CHANNELS 3 Xrotation Yrotation Zrotation
									JOINT RightHandIndex2
									{
										OFFSET -7.536453 0.000000 0.000000
										CHANNELS 3 Xrotation Yrotation Zrotation
										JOINT RightHandIndex3
										{
											OFFSET -7.512344 0.000000 0.000000
											CHANNELS 3 Xrotation Yrotation Zrotation
											JOINT RightHandIndex4
											{
												OFFSET -10.212402 0.000000 0.000001
												CHANNELS 3 Xrotation Yrotation Zrotation
												End Site
												{
													OFFSET 5.180801 8.690506 1.388433
												}
											}
										}
									}
								}
								JOINT RightHandMiddle1
								{
									OFFSET -23.373947 0.000000 0.000001
									CHANNELS 3 Xrotation Yrotation Zrotation
									JOINT RightHandMiddle2
									{
										OFFSET -6.996567 0.000000 0.000000
										CHANNELS 3 Xrotation Yrotation Zrotation
										JOINT RightHandMiddle3
										{
											OFFSET -7.015945 0.000000 0.000000
											CHANNELS 3 Xrotation Yrotation Zrotation
											JOINT RightHandMiddle4
											{
												OFFSET -7.721573 0.000000 0.000000
												CHANNELS 3 Xrotation Yrotation Zrotation
												End Site
												{
													OFFSET 4.651108 6.158463 0.251582
												}
											}
										}
									}
								}
								JOINT RightHandRing1
								{
									OFFSET -22.726120 -0.094986 -6.500475
									CHANNELS 3 Xrotation Yrotation Zrotation
									JOINT RightHandRing2
									{
										OFFSET -6.408615 0.000000 0.000000
										CHANNELS 3 Xrotation Yrotation Zrotation
										JOINT RightHandRing3
										{
											OFFSET -6.150223 0.000000 0.000000
											CHANNELS 3 Xrotation Yrotation Zrotation
											JOINT RightHandRing4
											{
												OFFSET -6.145386 0.000000 0.000000
												CHANNELS 3 Xrotation Yrotation Zrotation
												End Site
												{
													OFFSET 3.671402 4.923981 -0.202372
												}
											}
										}
									}
								}
								JOINT RightHandPinky1
								{
									OFFSET -18.920792 -0.453171 -11.426712
									CHANNELS 3 Xrotation Yrotation Zrotation
									JOINT RightHandPinky2
									{
										OFFSET -4.919586 0.000000 0.000000
										CHANNELS 3 Xrotation Yrotation Zrotation
										JOINT RightHandPinky3
										{
											OFFSET -5.233047 0.000000 0.000000
											CHANNELS 3 Xrotation Yrotation Zrotation
											JOINT RightHandPinky4
											{
												OFFSET -5.571716 0.000000 0.000000
												CHANNELS 3 Xrotation Yrotation Zrotation
												End Site
												{
													OFFSET 3.459808 4.342407 -0.466164
												}
											}
										}
									}
								}
							}
						}
					}
				}
			}
		}
	}
	JOINT LeftUpLeg
	{
		OFFSET 19.899099 -7.885101 -3.429500
		CHANNELS 3 Xrotation Yrotation Zrotation
		JOINT LeftLeg
		{
			OFFSET 1.745560 -36.997807 10.304700
			CHANNELS 3 Xrotation Yrotation Zrotation
			JOINT LeftFoot
			{
				OFFSET -1.745558 -29.803308 -13.615400
				CHANNELS 3 Xrotation Yrotation Zrotation
				JOINT LeftToeBase
				{
					OFFSET 1.181900 -18.539904 15.226099
					CHANNELS 3 Xrotation Yrotation Zrotation
					JOINT LeftToe_End
					{
						OFFSET -0.863701 1.402801 16.534700
						CHANNELS 3 Xrotation Yrotation Zrotation
						End Site
						{
							OFFSET 0.000000 16.616566 0.000000
						}
					}
				}
			}
		}
	}
	JOINT RightUpLeg
	{
		OFFSET -19.899099 -7.885101 -3.429500
		CHANNELS 3 Xrotation Yrotation Zrotation
		JOINT RightLeg
		{
			OFFSET -1.745560 -36.997807 10.304700
			CHANNELS 3 Xrotation Yrotation Zrotation
			JOINT RightFoot
			{
				OFFSET 1.745558 -29.803308 -13.615400
				CHANNELS 3 Xrotation Yrotation Zrotation
				JOINT RightToeBase
				{
					OFFSET -1.181900 -18.539904 15.226099
					CHANNELS 3 Xrotation Yrotation Zrotation
					JOINT RightToe_End
					{
						OFFSET 0.863701 1.402801 16.534700
						CHANNELS 3 Xrotation Yrotation Zrotation
						End Site
						{
							OFFSET 0.000000 16.616566 0.000000
						}
					}
				}
			}
		}
	}
}
MOTION
Frames: 4
Frame Time: 0.033333
-0.468063 72.008522 0.691126 -5.399176 -46.316599 -0.344575 9.440926 7.291846 -1.528014 2.187717 0.989894 -0.915630 2.202590 0.983769 -0.889304 0.085216 13.223332 4.536251 8.921461 20.142523 -4.130868 -0.000001 0.000000 -0.000001 1.120290 3.562557 -8.639340 -53.488171 4.927336 -51.508403 -0.000010 -106.357998 -0.000037 1.988420 -7.706326 -15.869378 -6.141210 -11.690786 -6.761680 9.914171 42.595488 3.409813 -0.422812 8.108087 27.509108 0.000001 0.000003 -0.000001 -3.762434 9.063699 -45.253825 5.342524 5.828993 -85.005290 8.716845 5.103347 -119.369194 0.000001 0.000000 -0.000002 0.469727 4.966832 -39.799437 8.181032 5.368607 -113.502950 3.200506 5.218128 -63.023002 0.000001 0.000001 -0.000002 -0.461472 3.841601 -39.722679 6.450757 5.820355 -95.892857 2.182889 4.561565 -51.127729 0.000001 -0.000000 0.000001 0.255317 3.378215 -45.814341 5.654096 5.847771 -88.067435 2.162149 4.544808 -50.866382 -0.000002 0.000001 0.000002 3.036129 13.027198 -5.371411 -48.718862 27.177210 83.462289 0.000021 105.982925 -0.000021 -8.347248 17.550506 8.778525 -7.341108 13.749654 7.412316 9.855831 -44.489072 -3.903220 -0.115796 -14.513063 -28.973871 0.000002 -0.000002 0.000002 -0.124375 -2.384775 45.108874 4.500598 -4.654547 88.071137 1.723219 -3.618366 50.920126 -0.000001 -0.000002 0.000004 -0.761623 -2.932908 39.031055 5.133890 -4.632755 95.881622 1.739743 -3.631699 51.181384 -0.000000 0.000000 -0.000001 0.154749 -4.068820 39.122671 6.509736 -4.273583 113.462850 2.549580 -4.153922 63.067371 0.000001 -0.000000 -0.000002 -4.198884 -8.025502 44.637796 4.252912 -4.639617 85.014811 6.935971 -4.062638 119.322271 -0.000001 -0.000005 -0.000000 -33.569017 4.033044 22.740095 57.662936 -10.169015 2.645224 -21.493250 -5.744220 -18.037206 -1.594039 0.000002 -0.000007 0.000000 0.000002 0.000000 -13.809804 -10.723868 -37.478051 58.014186 0.788907 -2.915969 -32.478195 -13.075519 26.172571 -0.013001 0.000015 -0.000004 0.000000 0.000001 -0.000000 
-0.558146 70.473534 0.250833 -6.923932 -45.555606 -1.198683 10.396821 7.455781 -1.313557 2.134054 1.003340 -0.898287 2.149569 0.987202 -0.878374 -0.046220 13.118761 4.631670 8.130690 19.741607 -3.783788 -0.000000 -0.000000 -0.000000 1.077295 3.166828 -8.482801 -52.443555 4.533712 -51.704300 0.000088 -105.968384 0.000089 0.783555 -7.637619 -14.483602 -6.141211 -11.690793 -6.761678 9.914170 42.595488 3.409809 -0.422812 8.108089 27.509116 -0.000002 0.000002 -0.000001 -3.762435 9.063694 -45.253825 5.342532 5.828994 -85.005283 8.716847 5.103347 -119.369194 0.000002 0.000000 -0.000002 0.469726 4.966830 -39.799430 8.181037 5.368606 -113.502950 3.200506 5.218128 -63.023002 -0.000000 0.000000 0.000005 -0.461473 3.841598 -39.722679 6.450756 5.820356 -95.892857 2.182888 4.561564 -51.127729 -0.000001 0.000001 0.000004 0.255316 3.378213 -45.814334 5.654093 5.847773 -88.067435 2.162147 4.544803 -50.866376 -0.000000 0.000003 0.000002 3.034399 12.992367 -5.615212 -48.792785 26.750728 83.607082 0.000056 106.724171 -0.000026 -7.368553 17.971539 8.906297 -7.341108 13.749655 7.412316 9.855821 -44.489069 -3.903222 -0.115796 -14.513064 -28.973871 -0.000000 -0.000002 0.000002 -0.124376 -2.384775 45.108874 4.500596 -4.654541 88.071137 1.723223 -3.618364 50.920126 -0.000001 0.000000 0.000004 -0.761623 -2.932903 39.031058 5.133892 -4.632756 95.881629 1.739745 -3.631699 51.181381 0.000000 -0.000000 -0.000004 0.154750 -4.068818 39.122671 6.509737 -4.273581 113.462843 2.549580 -4.153926 63.067371 -0.000000 0.000000 -0.000005 -4.198883 -8.025498 44.637796 4.252913 -4.639617 85.014818 6.935973 -4.062646 119.322271 0.000002 0.000000 0.000000 -35.144014 1.851355 22.559020 61.138963 -10.559778 2.552391 -20.263725 -5.307535 -17.859017 -2.878888 0.000097 -0.106487 -0.000000 0.000000 -0.000000 -13.205918 -10.957196 -39.300468 61.144338 1.433890 -1.776555 -34.951813 -12.796093 26.038530 0.014216 0.000007 0.034446 0.000000 -0.000000 -0.000000 
-0.740795 69.231636 -0.095304 -8.958218 -44.865867 -2.319267 11.218368 7.732008 -1.066883 2.502887 1.016335 -0.996060 2.521272 0.987220 -0.976702 -0.075006 12.995631 4.818876 7.444178 19.338234 -3.201558 0.000000 0.000000 0.000000 0.989217 2.688659 -8.125773 -50.714923 4.644413 -51.550306 -0.000006 -106.155456 -0.000032 -1.183134 -8.193609 -12.891212 -6.141206 -11.690792 -6.761679 9.914170 42.595488 3.409803 -0.422810 8.108090 27.509113 -0.000003 0.000002 -0.000002 -3.762434 9.063693 -45.253821 5.342525 5.828992 -85.005290 8.716847 5.103346 -119.369194 -0.000001 0.000002 -0.000002 0.469727 4.966832 -39.799437 8.181033 5.368606 -113.502950 3.200509 5.218127 -63.022996 0.000000 -0.000001 0.000001 -0.461471 3.841598 -39.722679 6.450760 5.820353 -95.892857 2.182889 4.561566 -51.127729 0.000000 0.000000 0.000004 0.255313 3.378213 -45.814341 5.654095 5.847770 -88.067435 2.162150 4.544804 -50.866379 -0.000000 0.000001 0.000001 3.042725 13.200001 -5.270643 -48.444623 26.741034 83.241230 0.000097 107.504596 -0.000081 -6.763655 18.273032 8.774071 -7.341109 13.749652 7.412313 9.855833 -44.489079 -3.903217 -0.115797 -14.513063 -28.973871 -0.000003 -0.000002 0.000002 -0.124377 -2.384773 45.108881 4.500594 -4.654549 88.071137 1.723221 -3.618369 50.920129 -0.000000 -0.000001 -0.000001 -0.761624 -2.932908 39.031055 5.133891 -4.632753 95.881629 1.739746 -3.631696 51.181377 0.000001 -0.000000 -0.000004 0.154750 -4.068821 39.122675 6.509740 -4.273582 113.462843 2.549579 -4.153924 63.067371 -0.000003 -0.000003 0.000002 -4.198881 -8.025504 44.637803 4.252915 -4.639614 85.014818 6.935976 -4.062651 119.322271 0.000002 0.000001 -0.000001 -36.009632 0.949199 22.133021 64.434263 -10.888985 2.555607 -19.530470 -4.538276 -16.410105 -4.123981 0.000024 -0.077953 -0.000000 0.000004 0.000000 -11.690310 -11.156582 -40.464862 63.590256 2.254985 -1.193248 -37.202145 -13.356593 25.836565 -0.017843 0.000004 -0.000001 -0.000000 -0.000000 -0.000000 
-0.761213 68.166962 0.139947 -11.175106 -44.778829 -3.480042 12.165974 8.150721 -0.545313 2.778295 1.035075 -1.323242 2.803024 0.987215 -1.307724 0.054337 12.913211 5.124688 7.641910 19.449322 -2.892339 -0.000000 -0.000000 0.000000 0.710982 3.127581 -6.919392 -47.084459 5.689444 -52.005426 -0.000017 -106.914720 -0.000035 -3.796489 -9.445832 -11.511442 -6.141206 -11.690788 -6.761677 9.914167 42.595488 3.409813 -0.422814 8.108089 27.509111 -0.000000 -0.000002 0.000001 -3.762431 9.063696 -45.253821 5.342522 5.828991 -85.005290 8.716849 5.103349 -119.369194 0.000001 0.000000 -0.000006 0.469725 4.966835 -39.799430 8.181032 5.368606 -113.502957 3.200505 5.218127 -63.023009 -0.000002 0.000002 0.000003 -0.461474 3.841599 -39.722679 6.450759 5.820353 -95.892864 2.182888 4.561561 -51.127726 0.000001 -0.000000 0.000004 0.255312 3.378214 -45.814341 5.654092 5.847769 -88.067435 2.162145 4.544804 -50.866379 -0.000002 0.000001 0.000001 3.047059 13.531967 -4.718999 -47.642304 26.909395 83.279704 0.000002 107.891587 0.000008 -5.957774 18.352573 7.705303 -7.341104 13.749655 7.412314 9.855831 -44.489076 -3.903211 -0.115798 -14.513064 -28.973874 0.000001 -0.000003 0.000004 -0.124373 -2.384778 45.108881 4.500599 -4.654545 88.071137 1.723219 -3.618363 50.920122 -0.000001 0.000000 -0.000001 -0.761621 -2.932906 39.031055 5.133891 -4.632755 95.881629 1.739745 -3.631700 51.181381 0.000001 -0.000001 -0.000009 0.154751 -4.068818 39.122675 6.509738 -4.273582 113.462836 2.549580 -4.153924 63.067371 0.000000 -0.000000 -0.000002 -4.198881 -8.025505 44.637800 4.252915 -4.639615 85.014811 6.935976 -4.062646 119.322285 -0.000000 -0.000002 0.000005 -37.193303 0.000936 21.516756 67.703519 -11.413824 2.521580 -16.269644 -3.999577 -15.778673 -7.078098 0.006643 -0.967951 0.000000 -0.000001 0.000000 -10.411599 -11.233325 -42.185448 65.174587 3.138864 -1.311399 -38.625000 -13.315817 26.343203 -0.177014 -0.000043 -0.000008 0.000000 0.000000 0.000000 
